# xmcd
#
# Track frame offsets: 
#        150
#        12142
#        24392
#        42162
#        65885
#        85037
#        101847
#        122112
#        138555
#        152102
#        166037
#        180480
#        193895
#        208872
#        223735
#        236717
#        251517
#        263407
#
# Disc length: 3703 seconds
#
# Revision: 3
# Processed by: cddbd v1.4PL0 Copyright (c) Steve Scherf et al.
# Submitted via: ExactAudioCopy v0.95a1
#
DISCID=fc0e7512
DTITLE=Louis Armstrong - The Complete RCA Recordings [CD4]
DYEAR=1900
DGENRE=Jazz
TTITLE0=It Takes Time
TTITLE1=You Don't Learn That In School
TTITLE2=Ain't Misbehavin'
TTITLE3=Rockin' Chair
TTITLE4=Back O' Town Blues
TTITLE5=Pennies From Heaven
TTITLE6=Save It Pretty Mama
TTITLE7=St. James Infirmary
TTITLE8=Jack-Armstrong Blues
TTITLE9=Rockin' Chair
TTITLE10=Some Day You'll Be Sorry
TTITLE11=Fifty-Fifty Blues
TTITLE12=A Song Was Born
TTITLE13=Please Stop Playin' Those Blues, Boy
TTITLE14=Before Long
TTITLE15=Lovely Weather We're Having
TTITLE16=Rain, Rain
TTITLE17=Never Saw a Better Day
EXTD=
EXTT0=
EXTT1=
EXTT2=
EXTT3=
EXTT4=
EXTT5=
EXTT6=
EXTT7=
EXTT8=
EXTT9=
EXTT10=
EXTT11=
EXTT12=
EXTT13=
EXTT14=
EXTT15=
EXTT16=
EXTT17=
PLAYORDER=
